<mxfile host="app.diagrams.net" modified="2023-05-06T04:43:58.441Z" agent="Mozilla/5.0 (Windows NT 10.0; Win64; x64) AppleWebKit/537.36 (KHTML, like Gecko) Chrome/113.0.0.0 Safari/537.36" version="21.2.9" etag="Y38e81BqduCuCsFn5ax_" type="github">
  <diagram name="第 1 页" id="_5zyzpVWVrL4TiePk7-B">
    <mxGraphModel>
      <root>
        <mxCell id="0" />
        <mxCell id="1" parent="0" />
      </root>
    </mxGraphModel>
  </diagram>
</mxfile>
